<svg xmlns="http://www.w3.org/2000/svg" width="51" height="42" viewBox="-8067 -3023 51 42"><g data-name="CompositeLayer"><g data-name="Icon"><g data-name="Frame 4"><g data-name="https://www.flaticon.com/free-icon/bars_547166?term=finance&amp;page=1&amp;position=8&amp;page=1&amp;position=8&amp;related_id=547166&amp;origin=search"><path d="M-8031.155-3007.787c0 2.913-2.304 5.25-5.096 5.25-2.792 0-5.06-2.301-5.06-5.214 0-2.912 2.233-5.249 5.06-5.249 2.827 0 5.096 2.301 5.096 5.213Zm-1.117.036c0-2.265-1.78-4.098-3.979-4.098-2.164 0-3.979 1.797-3.979 4.062 0 2.266 1.78 4.1 3.98 4.1 2.198 0 3.978-1.798 3.978-4.064Z" fill="#191919" fill-rule="evenodd"/><path d="M-8031.155-3007.787c0 2.913-2.304 5.25-5.096 5.25-2.792 0-5.06-2.301-5.06-5.214 0-2.912 2.233-5.249 5.06-5.249 2.827 0 5.096 2.301 5.096 5.213Zm-1.117.036c0-2.265-1.78-4.098-3.979-4.098-2.164 0-3.979 1.797-3.979 4.062 0 2.266 1.78 4.1 3.98 4.1 2.198 0 3.978-1.798 3.978-4.064Z" stroke-linejoin="round" stroke-linecap="round" stroke="#191919" fill="transparent"/></g><g data-name="https://www.flaticon.com/free-icon/bars_547166?term=finance&amp;page=1&amp;position=8&amp;page=1&amp;position=8&amp;related_id=547166&amp;origin=search"><path d="M-8034.61-3006.672c0 .144 0 .252-.035.36l-.105.323c-.07.108-.105.216-.175.288-.07.108-.14.18-.209.252-.105.071-.174.143-.28.18-.104.071-.209.107-.313.143h-.035v.755h-.838v-.719h-.07c-.104 0-.174 0-.279-.036-.105-.036-.21-.036-.28-.072a.633.633 0 0 1-.243-.072c-.105-.036-.175-.072-.315-.036l-.104-.036v-.107l.07-.648.034-.251.21.108c.035 0 .07.036.105.036.034 0 .07.035.104.035.07.036.14.036.21.072.07.036.14.072.21.072.034 0 .104.036.174.036h.454c.07 0 .139-.036.174-.036.035-.036.105-.036.14-.072.07-.036.104-.072.14-.107l.104-.108a.276.276 0 0 0 .07-.144v-.18c0-.072-.035-.144-.035-.18-.035-.072-.035-.108-.07-.144l-.105-.107c-.035 0-.07-.036-.105-.072-.034-.036-.104-.036-.14-.072a.262.262 0 0 0-.139-.072c-.07-.036-.174-.072-.279-.108-.07-.036-.175-.108-.28-.144-.069-.036-.174-.072-.244-.144-.104-.036-.174-.108-.244-.18-.07-.071-.105-.143-.174-.215-.035-.072-.105-.18-.14-.252-.07-.108-.07-.18-.105-.288-.035-.107-.035-.18-.035-.287 0-.108 0-.252.035-.36l.105-.323c.035-.108.07-.216.14-.288.07-.108.14-.18.209-.252.07-.072.14-.143.244-.18.105-.071.21-.107.314-.143h.035v-.72h.838v.684h.035c.07 0 .105.036.174.036.07 0 .14.036.175.036.07 0 .105.036.14.036.034 0 .104.036.14.036l.139.036v.143l-.07.576-.035.215-.174-.071c-.035 0-.07-.036-.14-.036-.035 0-.105-.036-.14-.036-.035 0-.104-.036-.174-.036-.07-.036-.105-.036-.175-.036h-.209c-.07 0-.105 0-.175.036-.07 0-.14.036-.174.072l-.105.107c-.035.036-.035.108-.07.144 0 .036-.034.108-.034.144v.18c0 .036 0 .108.034.144 0 .072.035.108.07.143l.105.108c.035.036.105.036.14.072.034.036.104.036.14.072a.262.262 0 0 0 .139.072c.07.036.174.072.279.108.105.036.174.108.28.144.069.036.174.072.244.144.104.036.174.107.244.18.07.071.105.143.174.215.07.072.105.18.14.252.07.108.07.18.105.287.035.108.035.18.035.288Z" fill="#191919" fill-rule="evenodd"/><path d="M-8034.61-3006.672c0 .144 0 .252-.035.36l-.105.323c-.07.108-.105.216-.175.288-.07.108-.14.18-.209.252-.105.071-.174.143-.28.18-.104.071-.209.107-.313.143h-.035v.755h-.838v-.719h-.07c-.104 0-.174 0-.279-.036-.105-.036-.21-.036-.28-.072a.633.633 0 0 1-.243-.072c-.105-.036-.175-.072-.315-.036l-.104-.036v-.107l.07-.648.034-.251.21.108c.035 0 .07.036.105.036.034 0 .07.035.104.035.07.036.14.036.21.072.07.036.14.072.21.072.034 0 .104.036.174.036h.454c.07 0 .139-.036.174-.036.035-.036.105-.036.14-.072.07-.036.104-.072.14-.107l.104-.108a.276.276 0 0 0 .07-.144v-.18c0-.072-.035-.144-.035-.18-.035-.072-.035-.108-.07-.144l-.105-.107c-.035 0-.07-.036-.105-.072-.034-.036-.104-.036-.14-.072a.262.262 0 0 0-.139-.072c-.07-.036-.174-.072-.279-.108-.07-.036-.175-.108-.28-.144-.069-.036-.174-.072-.244-.144-.104-.036-.174-.108-.244-.18-.07-.071-.105-.143-.174-.215-.035-.072-.105-.18-.14-.252-.07-.108-.07-.18-.105-.288-.035-.107-.035-.18-.035-.287 0-.108 0-.252.035-.36l.105-.323c.035-.108.07-.216.14-.288.07-.108.14-.18.209-.252.07-.072.14-.143.244-.18.105-.071.21-.107.314-.143h.035v-.72h.838v.684h.035c.07 0 .105.036.174.036.07 0 .14.036.175.036.07 0 .105.036.14.036.034 0 .104.036.14.036l.139.036v.143l-.07.576-.035.215-.174-.071c-.035 0-.07-.036-.14-.036-.035 0-.105-.036-.14-.036-.035 0-.104-.036-.174-.036-.07-.036-.105-.036-.175-.036h-.209c-.07 0-.105 0-.175.036-.07 0-.14.036-.174.072l-.105.107c-.035.036-.035.108-.07.144 0 .036-.034.108-.034.144v.18c0 .036 0 .108.034.144 0 .072.035.108.07.143l.105.108c.035.036.105.036.14.072.034.036.104.036.14.072a.262.262 0 0 0 .139.072c.07.036.174.072.279.108.105.036.174.108.28.144.069.036.174.072.244.144.104.036.174.107.244.18.07.071.105.143.174.215.07.072.105.18.14.252.07.108.07.18.105.287.035.108.035.18.035.288Z" stroke-linejoin="round" stroke-linecap="round" stroke="#191919" fill="transparent"/></g><g data-name="https://www.flaticon.com/free-icon/bars_547166?term=finance&amp;page=1&amp;position=8&amp;page=1&amp;position=8&amp;related_id=547166&amp;origin=search"><path d="m-8038.799-3001.027-5.898 4.818a.612.612 0 0 1-.559.072l-7.33-3.128-7.573 5.573a.552.552 0 0 1-.314.108.505.505 0 0 1-.454-.252.586.586 0 0 1 .14-.791l7.818-5.753a.543.543 0 0 1 .523-.072l7.295 3.128 5.654-4.638c.245-.18.628-.144.803.108.174.252.14.647-.105.827Z" fill="#191919" fill-rule="evenodd"/><path d="m-8038.799-3001.027-5.898 4.818a.612.612 0 0 1-.559.072l-7.33-3.128-7.573 5.573a.552.552 0 0 1-.314.108.505.505 0 0 1-.454-.252.586.586 0 0 1 .14-.791l7.818-5.753a.543.543 0 0 1 .523-.072l7.295 3.128 5.654-4.638c.245-.18.628-.144.803.108.174.252.14.647-.105.827Z" stroke-linejoin="round" stroke-linecap="round" stroke="#191919" fill="transparent"/></g><g data-name="https://www.flaticon.com/free-icon/bars_547166?term=finance&amp;page=1&amp;position=8&amp;page=1&amp;position=8&amp;related_id=547166&amp;origin=search"><path d="M-8030.003-2981.575a.56.56 0 0 1-.559.575h-35.88a.56.56 0 0 1-.558-.575.56.56 0 0 1 .558-.576h2.618v-8.377a.56.56 0 0 1 .559-.575h5.165a.56.56 0 0 1 .559.575v8.377h1.884v-11.757a.56.56 0 0 1 .559-.575h5.13a.56.56 0 0 1 .559.575v11.757h1.885v-10.894a.56.56 0 0 1 .558-.575h5.166a.56.56 0 0 1 .558.575v10.894h1.885v-16.647a.56.56 0 0 1 .558-.575h5.13a.56.56 0 0 1 .56.575v16.647h2.582c.314 0 .559.252.524.576Zm-28.69-8.378h-4.014v7.802h4.014v-7.802Zm8.167-3.38h-4.014v11.182h4.014v-11.182Zm8.132.863h-4.014v10.32h4.014v-10.32Zm8.167-5.752h-4.013v16.071h4.013v-16.071Z" fill="#191919" fill-rule="evenodd"/><path d="M-8030.003-2981.575a.56.56 0 0 1-.559.575h-35.88a.56.56 0 0 1-.558-.575.56.56 0 0 1 .558-.576h2.618v-8.377a.56.56 0 0 1 .559-.575h5.165a.56.56 0 0 1 .559.575v8.377h1.884v-11.757a.56.56 0 0 1 .559-.575h5.13a.56.56 0 0 1 .559.575v11.757h1.885v-10.894a.56.56 0 0 1 .558-.575h5.166a.56.56 0 0 1 .558.575v10.894h1.885v-16.647a.56.56 0 0 1 .558-.575h5.13a.56.56 0 0 1 .56.575v16.647h2.582c.314 0 .559.252.524.576Zm-28.69-8.378h-4.014v7.802h4.014v-7.802Zm8.167-3.38h-4.014v11.182h4.014v-11.182Zm8.132.863h-4.014v10.32h4.014v-10.32Zm8.167-5.752h-4.013v16.071h4.013v-16.071Z" stroke-linejoin="round" stroke-linecap="round" stroke="#191919" fill="transparent"/></g></g></g><path d="M-8028.5-3019.5v2h2a.5.5 0 0 1 0 1h-2v2a.5.5 0 0 1-1 0v-2h-2a.5.5 0 0 1 0-1h2v-2a.5.5 0 0 1 1 0ZM-8050.5-3022.5v2h2a.5.5 0 0 1 0 1h-2v2a.5.5 0 0 1-1 0v-2h-2a.5.5 0 0 1 0-1h2v-2a.5.5 0 0 1 1 0ZM-8018.5-3004.5v2h2a.5.5 0 0 1 0 1h-2v2a.5.5 0 0 1-1 0v-2h-2a.5.5 0 0 1 0-1h2v-2a.5.5 0 0 1 1 0Z" fill="rgba(25,25,25,0.3 )" fill-rule="evenodd" data-name="Abstract"/></g></svg>